<?xml version="1.0"?>
<svg xmlns="http://www.w3.org/2000/svg" height="512px" viewBox="0 -1 512.00102 512" width="512px" class=""><g><path d="m216.046875 238.164062-64.53125-39.699218-18.300781-52.542969 24.898437 40.097656 49.871094 30.679688c2.308594-13.683594 14.207031-24.109375 28.542969-24.109375h14.367187l-54.523437-13.722656-27.101563-31.214844.601563-8.992188c1.113281-16.625-11.460938-31-28.085938-32.113281l-53.671875-3.589844c-16.625-1.109375-31 11.464844-32.113281 28.085938-.007812.101562-10.402344 154.921875-10.394531 155.023437l4.300781 86.300782-47.597656 102.648437c-5.765625 12.4375-.359375 27.195313 12.078125 32.964844 12.4375 5.765625 27.199219.359375 32.964843-12.078125l50.175782-108.210938c1.691406-3.648437 2.472656-7.660156 2.273437-11.679687l-4.347656-87.210938 10.242187.683594 27.089844 80.558594 10.261719 117.574219c1.183594 13.566406 13.132813 23.765624 26.890625 22.570312 13.65625-1.191406 23.761719-13.230469 22.570312-26.886719l-10.519531-120.523437c-.171875-1.960938-.574219-3.890625-1.203125-5.753906l-21.507812-63.957032.269531.019532 1.703125-25.492188c-7.519531-4.628906-43.566406-26.804688-48.816406-30.03125-5.394532-3.320312-8.671875-8.894531-9.378906-14.730469l-7.351563-63.851562 20.628906 59.226562c1.503907 4.320313 4.453125 7.984375 8.347657 10.382813l70.554687 43.40625c9.300781 5.71875 21.546875 2.875 27.320313-6.511719 5.746093-9.339844 2.832031-21.570313-6.507813-27.320313zm0 0" data-original="#000000" class="active-path" data-old_color="#000000" fill="#EDE9E9"/><path d="m156.421875 44.65625c0 24.660156-19.992187 44.652344-44.65625 44.652344-24.660156 0-44.65625-19.992188-44.65625-44.652344 0-24.664062 19.996094-44.65625 44.65625-44.65625 24.664063 0 44.65625 19.992188 44.65625 44.65625zm0 0" data-original="#000000" class="active-path" data-old_color="#000000" fill="#EDE9E9"/><path d="m496.660156 440.625h-13.382812c6.644531-1.800781 11.542968-7.859375 11.542968-15.078125v-180.585937c0-8.636719-7-15.636719-15.636718-15.636719h-123.519532c-8.636718 0-15.640624 7-15.640624 15.636719v184.121093c0 6.375 5.167968 11.542969 11.546874 11.542969-7.863281 0-14.824218 0-22.679687 0l-33.117187-221.730469c-1.089844-7.304687-7.367188-12.710937-14.753907-12.710937h-43.738281c-6.808594 0-13.042969 4.28125-15.042969 10.792968-.875 2.839844-.761719 5.519532-.105469 7.980469.710938.539063 6.761719 3.4375 11.6875 10.804688.878907.160156 1.78125.257812 2.710938.257812h31.632812c8 53.535157 33.003907 221.042969 33.191407 222.105469 1.257812 7.199219 7.515625 12.335938 14.71875 12.335938h7.859375c-1.484375 3.457031-2.308594 7.261718-2.308594 11.261718 0 .746094.035156 1.484375.09375 2.214844 1.191406 15.515625 14.761719 27.5625 30.859375 26.253906 13.664063-1.109375 24.773437-12.078125 26.050781-25.726562.46875-5-.359375-9.765625-2.179687-14.003906h52.242187c-1.652344 3.851562-2.488281 8.140624-2.273437 12.644531.679687 14.421875 12.34375 26.257812 26.753906 27.128906 16.582031 1.003906 30.34375-12.144531 30.34375-28.511719 0-4-.824219-7.804687-2.308594-11.261718h15.875c8.480469 0 15.304688-7.070313 14.902344-15.636719-.378906-8.023438-7.289063-14.199219-15.324219-14.199219zm-146.46875 51.761719c-5.882812 0-10.664062-4.78125-10.664062-10.664063 0-5.878906 4.78125-10.664062 10.664062-10.664062 5.878906 0 10.664063 4.785156 10.664063 10.664062 0 5.882813-4.785157 10.664063-10.664063 10.664063zm46.273438-86.230469h-.859375c-1.867188 0-3.382813 1.515625-3.382813 3.382812v28.265626.035156c-.015625 1.570312-1.402344 2.785156-2.972656 2.785156h-20.988281c-1.570313 0-2.957031-1.214844-2.976563-2.785156 0-.011719 0-.023438 0-.035156v-28.265626c0-1.867187-1.511718-3.382812-3.378906-3.382812h-.859375c-3.015625 0-4.523437-3.644531-2.394531-5.773438l17.710937-17.710937c1.320313-1.320313 3.464844-1.320313 4.785157 0l17.707031 17.710937c2.132812 2.128907.625 5.773438-2.390625 5.773438zm58.484375 86.230469c-5.878907 0-10.664063-4.78125-10.664063-10.664063 0-5.878906 4.785156-10.664062 10.664063-10.664062 5.878906 0 10.664062 4.785156 10.664062 10.664062 0 5.882813-4.785156 10.664063-10.664062 10.664063zm0 0" data-original="#000000" class="active-path" data-old_color="#000000" fill="#EDE9E9"/></g> </svg>
