<?xml version="1.0"?>
<svg xmlns="http://www.w3.org/2000/svg" xmlns:xlink="http://www.w3.org/1999/xlink" version="1.1" id="Capa_1" x="0px" y="0px" viewBox="0 0 390 390" style="enable-background:new 0 0 390 390;" xml:space="preserve" width="512px" height="512px"><g><g>
	
		<rect x="132.754" y="257.723" width="124.492" height="10.164" data-original="#000000" class="active-path" data-old_color="#000000" fill="#F5F5F5"/>
	
		<rect x="132.754" y="280.612" width="124.492" height="10.164" data-original="#000000" class="active-path" data-old_color="#000000" fill="#F5F5F5"/>
	<path d="M151.066,311.715h87.867   c6.381,0,11.993-3.268,15.271-8.213h-118.41C139.073,308.447,144.686,311.715,151.066,311.715z" data-original="#000000" class="active-path" data-old_color="#000000" fill="#F5F5F5"/>
	<path d="M357.517,103.422h-6.868V91.486   c0-2.528-2.051-4.578-4.578-4.578h-30.24c-0.589-9.053-1.211-18.105-1.895-27.155c-0.858-8.89-8.117-16.082-17.142-16.303   c-62.247,0-141.343,0-203.588,0c-9.029,0.22-16.281,7.413-17.146,16.303c-0.682,9.05-1.305,18.103-1.893,27.155H43.93   c-2.528,0-4.578,2.05-4.578,4.578v11.936h-6.869c-0.778,0-1.41,0.633-1.41,1.414v42.951c0,0.78,0.632,1.414,1.41,1.414h6.869V164.8   c0,2.528,2.05,4.578,4.578,4.578h26.189c-0.706,21.344-1.154,42.694-1.325,64.05c-17.065,3.5-29.938,18.636-29.938,36.719v53.22   c0,20.344,16.292,36.94,36.516,37.455c0.496,0.08,1.004,0.131,1.519,0.152v24.251c0,2.633,2.144,4.774,4.774,4.774h30.768   c2.632,0,4.772-2.142,4.772-4.774v-24.224h155.592v24.224c0,2.633,2.144,4.774,4.772,4.774h30.768c2.633,0,4.775-2.142,4.775-4.774   v-24.251c0.517-0.021,1.024-0.072,1.522-0.152c20.221-0.519,36.512-17.113,36.512-37.455v-53.22   c0-18.082-12.873-33.217-29.938-36.718c-0.17-21.356-0.619-42.706-1.326-64.051h26.189c2.527,0,4.578-2.05,4.578-4.578v-15.599   h6.868c0.779,0,1.411-0.634,1.411-1.414v-42.951C358.928,104.056,358.296,103.422,357.517,103.422z M96.822,98.106h196.355   c1.971,26.587,3.552,53.639,4.702,80.526H92.12C93.271,151.741,94.852,124.686,96.822,98.106z M48.508,160.222v-11.02h6.865   c0.782,0,1.41-0.634,1.41-1.414v-42.951c0-0.781-0.628-1.414-1.41-1.414h-6.865v-7.358h25.073   c-1.315,21.379-2.364,42.766-3.148,64.158H48.508z M61.258,293.043V269.45c0-6.237,5.057-11.294,11.295-11.294h23.592   L61.258,293.043z M268.232,258.519v9.368c0,2.374-0.761,4.566-2.041,6.363c1.28,1.796,2.041,3.989,2.041,6.363v10.164   c0,3.375-1.525,6.392-3.92,8.408c0.566,1.326,0.883,2.785,0.883,4.318c0,2.346-0.736,4.52-1.989,6.305   c-5.468,8.08-14.521,12.895-24.272,12.895h-87.867c-9.848,0-18.979-4.908-24.43-13.129c-2.053-3.097-2.367-6.992-0.928-10.369   c-2.408-2.016-3.941-5.042-3.941-8.427v-10.164c0-2.374,0.761-4.566,2.041-6.363c-1.28-1.796-2.041-3.989-2.041-6.363v-9.368   l-28.893-52.827c-0.531-0.971-0.292-2.183,0.569-2.879c0.863-0.695,2.098-0.675,2.935,0.049l35.173,30.387   c5.306-4.747,12.211-7.452,19.515-7.452h87.867c7.304,0,14.209,2.704,19.514,7.452l35.174-30.388   c0.837-0.724,2.072-0.744,2.935-0.049c0.862,0.696,1.101,1.908,0.569,2.879L268.232,258.519z M328.742,269.45v23.593   l-34.887-34.887h23.592C323.685,258.156,328.742,263.213,328.742,269.45z M341.492,103.422h-6.865   c-0.782,0-1.411,0.633-1.411,1.414v42.951c0,0.78,0.629,1.414,1.411,1.414h6.865v11.02h-21.924   c-0.785-21.393-1.835-42.779-3.15-64.158h25.074V103.422z" data-original="#000000" class="active-path" data-old_color="#000000" fill="#F5F5F5"/>
	<path d="M238.934,236.784h-87.867   c-6.381,0-11.993,3.265-15.271,8.213h118.41C250.927,240.049,245.314,236.784,238.934,236.784z" data-original="#000000" class="active-path" data-old_color="#000000" fill="#F5F5F5"/>
	<path d="M288.007,12.59   c0-6.954-5.636-12.59-12.585-12.59h-33.918v5.359c0,3.474-2.818,6.292-6.298,6.292h-80.412c-3.479,0-6.298-2.818-6.298-6.292V0   h-33.918c-6.949,0-12.585,5.636-12.585,12.59v24.034h186.014V12.59z" data-original="#000000" class="active-path" data-old_color="#000000" fill="#F5F5F5"/>
</g></g> </svg>
